<svg width="22" height="22" viewBox="0 0 22 22" fill="none" xmlns="http://www.w3.org/2000/svg">
<path fill-rule="evenodd" clip-rule="evenodd" d="M10.9343 0.75C8.16916 0.75 7.82302 0.761936 6.73686 0.809679C5.65467 0.857423 4.91067 1.03248 4.26613 1.28314C3.59374 1.54572 3.0248 1.89187 2.45983 2.46081C1.89089 3.02577 1.54475 3.59472 1.28216 4.26313C1.03151 4.91164 0.856446 5.65167 0.808703 6.73385C0.760959 7.824 0.749023 8.17014 0.749023 10.9353C0.749023 13.7004 0.760959 14.0466 0.808703 15.1327C0.856446 16.2149 1.03151 16.9589 1.28216 17.6035C1.54475 18.2758 1.89089 18.8448 2.45983 19.4098C3.0248 19.9747 3.59374 20.3248 4.26215 20.5834C4.91067 20.8341 5.65069 21.0092 6.73288 21.0569C7.81904 21.1046 8.16518 21.1166 10.9303 21.1166C13.6955 21.1166 14.0416 21.1046 15.1278 21.0569C16.21 21.0092 16.954 20.8341 17.5985 20.5834C18.2669 20.3248 18.8359 19.9747 19.4008 19.4098C19.9658 18.8448 20.3159 18.2758 20.5745 17.6074C20.8252 16.9589 21.0002 16.2189 21.048 15.1367C21.0957 14.0505 21.1077 13.7044 21.1077 10.9393C21.1077 8.17411 21.0957 7.82797 21.048 6.74181C21.0002 5.65962 20.8252 4.91562 20.5745 4.27108C20.3239 3.59472 19.9777 3.02577 19.4088 2.46081C18.8438 1.89584 18.2749 1.54572 17.6065 1.28711C16.9579 1.03646 16.2179 0.861402 15.1357 0.813658C14.0456 0.761936 13.6995 0.75 10.9343 0.75ZM10.9343 5.70312C8.04579 5.70312 5.70238 8.04654 5.70238 10.935C5.70238 13.8235 8.04579 16.1669 10.9343 16.1669C13.8228 16.1669 16.1662 13.8235 16.1662 10.935C16.1662 8.04654 13.8228 5.70312 10.9343 5.70312ZM10.9343 14.3288C9.06034 14.3288 7.5405 12.8089 7.5405 10.935C7.5405 9.06108 9.06034 7.54125 10.9343 7.54125C12.8082 7.54125 14.328 9.06108 14.328 10.935C14.328 12.8089 12.8082 14.3288 10.9343 14.3288ZM16.3731 6.72413C17.0455 6.72413 17.5945 6.17906 17.5945 5.50269C17.5945 4.8303 17.0455 4.28125 16.3731 4.28125C15.7007 4.28125 15.1517 4.82632 15.1517 5.50269C15.1517 6.17508 15.6967 6.72413 16.3731 6.72413Z" fill="black"/>
</svg>
