<svg width="23" height="23" viewBox="0 0 23 23" fill="none" xmlns="http://www.w3.org/2000/svg">
<path d="M11.1263 22.1275C17.2021 22.1275 22.1275 17.2021 22.1275 11.1263C22.1275 5.05044 17.2021 0.125 11.1263 0.125C5.05044 0.125 0.125 5.05044 0.125 11.1263C0.125 17.2021 5.05044 22.1275 11.1263 22.1275Z" fill="white"/>
<path d="M11.1263 0.125C5.05067 0.125 0.125 5.05067 0.125 11.1263C0.125 15.7894 3.02245 19.7734 7.11511 21.376C7.01551 20.5068 6.93401 19.1667 7.15132 18.216C7.35052 17.3558 8.43707 12.747 8.43707 12.747C8.43707 12.747 8.1111 12.086 8.1111 11.1172C8.1111 9.587 8.99845 8.44612 10.1031 8.44612C11.0448 8.44612 11.4975 9.15238 11.4975 9.99445C11.4975 10.9361 10.8999 12.3486 10.583 13.6615C10.3204 14.7571 11.1353 15.6535 12.2128 15.6535C14.1686 15.6535 15.6716 13.5891 15.6716 10.6192C15.6716 7.98434 13.7792 6.14627 11.0719 6.14627C7.93907 6.14627 6.101 8.4914 6.101 10.918C6.101 11.8597 6.46318 12.8738 6.91591 13.4261C7.00645 13.5348 7.01551 13.6344 6.98834 13.743C6.90685 14.0871 6.71671 14.8386 6.68049 14.9926C6.63522 15.1918 6.51751 15.237 6.30925 15.1374C4.93296 14.4946 4.07278 12.4935 4.07278 10.8727C4.07278 7.40485 6.58994 4.21765 11.3436 4.21765C15.1555 4.21765 18.1254 6.93402 18.1254 10.5739C18.1254 14.3678 15.735 17.4192 12.4211 17.4192C11.3074 17.4192 10.257 16.8397 9.9039 16.1515C9.9039 16.1515 9.35158 18.2522 9.21576 18.7683C8.97129 19.7281 8.30125 20.9233 7.84852 21.6567C8.88074 21.9736 9.96729 22.1456 11.1082 22.1456C17.1838 22.1456 22.1094 17.22 22.1094 11.1444C22.1275 5.05067 17.2019 0.125 11.1263 0.125Z" fill="black"/>
</svg>
